<?xml version="1.0" ?><svg viewBox="0 0 64 64" xmlns="http://www.w3.org/2000/svg"><title/><g id="wipe-trash-can"><circle cx="29" cy="37" r="23" style="fill:#edebdc"/><polygon points="56.785 61 36.215 61 35 34 58 34 56.785 61" style="fill:#6b4f5b;stroke:#4c241d;stroke-linecap:round;stroke-linejoin:round;stroke-width:2px"/><line style="fill:#fff;stroke:#4c241d;stroke-linecap:round;stroke-linejoin:round;stroke-width:2px" x1="30" x2="62" y1="34" y2="34"/><rect height="5" style="fill:#b5a19c;stroke:#4c241d;stroke-linecap:round;stroke-linejoin:round;stroke-width:2px" width="23" x="35" y="29"/><rect height="4" style="fill:none;stroke:#4c241d;stroke-linecap:round;stroke-linejoin:round;stroke-width:2px" width="9" x="42" y="25"/><polygon points="19.903 33.678 25.456 35.32 19.903 36.962 18.681 42.094 17.46 36.962 11.907 35.32 17.46 33.678 18.681 28.546 19.903 33.678" style="fill:#ffce56;stroke:#4c241d;stroke-linecap:round;stroke-linejoin:round;stroke-width:2px"/><path d="M22.958,12.1s-3.369,4.451-.6,8.371" style="fill:none;stroke:#4c241d;stroke-linecap:round;stroke-linejoin:round;stroke-width:2px"/><path d="M33.942,18.7a.79.79,0,1,1,.005-1.117A.79.79,0,0,1,33.942,18.7Z" style="fill:#4c241d"/><path d="M38.388,23.187a.79.79,0,1,1,.005-1.117A.791.791,0,0,1,38.388,23.187Z" style="fill:#4c241d"/><path d="M35.584,25.965a.789.789,0,1,1,0-1.116A.789.789,0,0,1,35.584,25.965Z" style="fill:#4c241d"/><path d="M41.191,20.408a.789.789,0,1,1,0-1.117A.789.789,0,0,1,41.191,20.408Z" style="fill:#4c241d"/><path d="M37.286,19.832a.789.789,0,1,1,0-1.116A.789.789,0,0,1,37.286,19.832Z" style="fill:#4c241d"/><path d="M35.043,22.055a.789.789,0,1,1,.005-1.116A.789.789,0,0,1,35.043,22.055Z" style="fill:#4c241d"/><polygon points="15.852 8.839 17.244 7.461 14.466 4.658 16.708 2.435 23.402 3.581 30.627 10.87 26.344 15.113 22.454 11.188 18.631 11.642 15.852 8.839" style="fill:#b5a19c;stroke:#4c241d;stroke-linecap:round;stroke-linejoin:round;stroke-width:2px"/><rect height="3.995" style="fill:#e7d1c4;stroke:#4c241d;stroke-linecap:round;stroke-linejoin:round;stroke-width:2px" transform="translate(18.786 -16.837) rotate(45.255)" width="3.158" x="28.011" y="12.118"/><path d="M15.815,14.484l-2.828-2.829a2,2,0,0,1,0-2.828h0a2,2,0,0,1,2.828,0l2.829,2.828a2,2,0,0,1,0,2.829h0A2,2,0,0,1,15.815,14.484Z" style="fill:#e7d1c4;stroke:#4c241d;stroke-linecap:round;stroke-linejoin:round;stroke-width:2px"/><path d="M7.083,11.105h6.15a2.425,2.425,0,0,1,2.425,2.425v8.575a0,0,0,0,1,0,0h-11a0,0,0,0,1,0,0V13.53A2.425,2.425,0,0,1,7.083,11.105Z" style="fill:#fff;stroke:#4c241d;stroke-linecap:round;stroke-linejoin:round;stroke-width:2px" transform="translate(14.717 -2.32) rotate(45)"/><path d="M44.082,6.667A1.069,1.069,0,1,1,43.013,5.6,1.07,1.07,0,0,1,44.082,6.667Z" style="fill:#4c241d"/><line style="fill:none;stroke:#4c241d;stroke-linecap:round;stroke-linejoin:round;stroke-width:2px" x1="55" x2="55" y1="11" y2="13"/><line style="fill:none;stroke:#4c241d;stroke-linecap:round;stroke-linejoin:round;stroke-width:2px" x1="55" x2="55" y1="17" y2="19"/><line style="fill:none;stroke:#4c241d;stroke-linecap:round;stroke-linejoin:round;stroke-width:2px" x1="51" x2="53" y1="15" y2="15"/><line style="fill:none;stroke:#4c241d;stroke-linecap:round;stroke-linejoin:round;stroke-width:2px" x1="57" x2="59" y1="15" y2="15"/><line style="fill:none;stroke:#4c241d;stroke-linecap:round;stroke-linejoin:round;stroke-width:2px" x1="42.125" x2="42.75" y1="30" y2="61"/><line style="fill:none;stroke:#4c241d;stroke-linecap:round;stroke-linejoin:round;stroke-width:2px" x1="50.875" x2="50.25" y1="30" y2="61"/><circle cx="25.5" cy="54.5" r="2.5" style="fill:none;stroke:#4c241d;stroke-linecap:round;stroke-linejoin:round;stroke-width:2px"/><path d="M6.082,41.667A1.069,1.069,0,1,1,5.013,40.6,1.07,1.07,0,0,1,6.082,41.667Z" style="fill:#4c241d"/></g></svg>